inDegrees=no
num_controls=7
num_derivatives=13
num_iterations=91
num_multipliers=7
num_parameters=0
num_slacks=7
num_states=26
objective=0.430852
objective_accelerations=0.051637
objective_balance=0.006845
objective_effort=0.031654
objective_height=0.339573
objective_ligament=0.001143
solver_duration=1191.609616
status=Solve_Succeeded
success=true
DataType=double
version=3
OpenSimVersion=4.5
endheader
time	/jointset/ground_pelvis/pelvis_tilt/value	/jointset/ground_pelvis/pelvis_tx/value	/jointset/ground_pelvis/pelvis_ty/value	/jointset/hip_l/hip_flexion_l/value	/jointset/hip_l/hip_adduction_l/value	/jointset/hip_l/hip_rotation_l/value	/jointset/back/lumbar_extension/value	/jointset/patellofemoral_l/patellar_flexion_l/value	/jointset/knee_l/knee_flexion_l/value	/jointset/knee_l/knee_adduction_l/value	/jointset/knee_l/knee_rotation_l/value	/jointset/ankle_l/ankle_angle_l/value	/jointset/subtalar_l/subtalar_angle_l/value	/jointset/ground_pelvis/pelvis_tilt/speed	/jointset/ground_pelvis/pelvis_tx/speed	/jointset/ground_pelvis/pelvis_ty/speed	/jointset/hip_l/hip_flexion_l/speed	/jointset/hip_l/hip_adduction_l/speed	/jointset/hip_l/hip_rotation_l/speed	/jointset/back/lumbar_extension/speed	/jointset/patellofemoral_l/patellar_flexion_l/speed	/jointset/knee_l/knee_flexion_l/speed	/jointset/knee_l/knee_adduction_l/speed	/jointset/knee_l/knee_rotation_l/speed	/jointset/ankle_l/ankle_angle_l/speed	/jointset/subtalar_l/subtalar_angle_l/speed	/forceset/tau_hip_flexion_l	/forceset/tau_hip_adduction_l	/forceset/tau_hip_rotation_l	/forceset/tau_knee_flexion_l	/forceset/tau_ankle_angle_l	/forceset/tau_subtalar_angle_l	/forceset/tau_lumbar_extension	lambda_cid13_p0	lambda_cid13_p1	lambda_cid13_p2	lambda_cid13_p3	lambda_cid13_p4	lambda_cid13_p5	lambda_cid14_p0	/jointset/ground_pelvis/pelvis_tilt/accel	/jointset/ground_pelvis/pelvis_tx/accel	/jointset/ground_pelvis/pelvis_ty/accel	/jointset/hip_l/hip_flexion_l/accel	/jointset/hip_l/hip_adduction_l/accel	/jointset/hip_l/hip_rotation_l/accel	/jointset/back/lumbar_extension/accel	/jointset/patellofemoral_l/patellar_flexion_l/accel	/jointset/knee_l/knee_flexion_l/accel	/jointset/knee_l/knee_adduction_l/accel	/jointset/knee_l/knee_rotation_l/accel	/jointset/ankle_l/ankle_angle_l/accel	/jointset/subtalar_l/subtalar_angle_l/accel	gamma_cid13_p0	gamma_cid13_p1	gamma_cid13_p2	gamma_cid13_p3	gamma_cid13_p4	gamma_cid13_p5	gamma_cid14_p0
1.5	-0.3393602064059126	-0.03260432611261362	0.7614671705871775	1.187882418400271	-0.3044883900606639	0.01666162101810701	-0.3402411953544061	0.8325738663869049	0.8325738663867749	-0.1731198347113354	0.1663997873906133	0.1667191139381932	-0.01844007857466862	0.4315424737550023	0.1594446882286496	0.5195550681313057	-2.135309139515166	-0.01723122882487178	-0.7081562268776956	0.5730548359691402	-2.128279071446985	-2.128279071448602	0.00799513086193218	-0.04413050317916201	-0.5489916271831403	-0.109944712186784	-0.1961071711539515	0.02101960906246147	-0.02583205025509907	-0.2566887675970062	0.09904657822727113	0.03742192188854244	0.1942302952133853	-6.407087086639397	-17.66461357009662	5.308363735020995	-2.515085751007321	-607.3045540780058	-57.78551250148165	-19.5098710294086	0.5363083578393709	0.5746684195570452	-0.416037932755337	-1.392747670488628	0.6879070440842507	-0.3730870806219778	1.69773529749212	-1.401801388604655	-1.401801388604652	0.0507465913053179	-0.08276761349521759	-0.5753155123382505	0.7168529224539206	4.135307326175654e-07	3.146344457054457e-07	-2.669976867051114e-06	-3.055635204497706e-07	4.975043639757266e-07	1.792218329235463e-07	4.054325148923113e-07
1.51	-0.3350181165892122	-0.03098130407290733	0.7666408441763198	1.166461878979803	-0.3046273889377672	0.009564635247700352	-0.3344270596690836	0.8112233185138357	0.8112233185137645	-0.1730414492557557	0.1659540626884166	0.1612008054935358	-0.01950512143676409	0.4368163370314855	0.165138603658349	0.5150693654897557	-2.148493260310124	-0.01054733182805378	-0.7111493244784294	0.5896852468004307	-2.141521695867556	-2.141521695868287	0.007674468908570449	-0.04501018459707071	-0.5545771047759299	-0.1030461198361395	-0.1898719792912862	0.02059619749699742	-0.0256867683468535	-0.2535631741804241	0.1002818811499617	0.03732240729832279	0.1889797302993735	-5.770630250965424	-17.83176815244879	5.448018995348333	-2.651437480137239	-602.7710247984172	-58.02811977377876	-20.81668616337751	0.5140920713598206	0.5635227429370454	-0.4812664295627067	-1.235367887225849	0.6621907287791887	-0.2482776286885821	1.632635831725261	-1.239261551313636	-1.239261551180873	-0.07462724584810504	-0.08936685529070022	-0.536236571434887	0.679278732503835	4.493699443097265e-07	4.399958173151159e-07	-2.796054829550032e-06	-3.116384192443062e-07	5.408351239134625e-07	2.867603329849232e-07	4.337826060074029e-07
1.52	-0.3306250547879883	-0.02930198895125193	0.771766374739105	1.144918673630737	-0.3046988369046436	0.002440547195510666	-0.3284492315042933	0.7897495906800543	0.7897495906800529	-0.1729665013511456	0.165499781482172	0.1556294277352134	-0.02050059510712629	0.4417368706602539	0.1707033046184695	0.5099264628598745	-2.159842325234139	-0.003721046779291283	-0.7135766832347433	0.6057933318628324	-2.152915063589341	-2.152915063589187	0.007307620667562286	-0.04584180398906133	-0.5596054899161429	-0.09603087384012902	-0.1836367874286254	0.02017278593153731	-0.02554148643860655	-0.2504375807638426	0.1015171840726538	0.037222892708108	0.1837291653853562	-5.138633981121187	-18.00010131912511	5.590102637541555	-2.808512693395945	-598.3336246430734	-58.36012631869573	-22.11864178638059	0.4656424282963713	0.5488255256412622	-0.5474779304215976	-1.025736496299964	0.716384654473146	-0.2599393117379933	1.593270143714342	-1.031950048847506	-1.031950048847526	0.04150933377602543	-0.07315520831160373	-0.4638970218229376	0.7401836515271338	4.944040947129189e-07	5.442047625820137e-07	-2.974852114186755e-06	-3.275423481859737e-07	5.94654263898808e-07	3.951494033089128e-07	4.678783298295306e-07
1.53	-0.326184525092017	-0.02756774343642149	0.7768372549058684	1.123271099643465	-0.3047015587744233	-0.004704880056413653	-0.3223131945562615	0.7681711620425777	0.7681711620425729	-0.1728958026963147	0.1650373975470929	0.1500105144707566	-0.02142561607346188	0.4463040735153487	0.1761167315509103	0.5041435919610601	-2.169345997691351	0.003198650514263496	-0.7154323902883258	0.6213099914256521	-2.162437642813397	-2.162437642813	0.006852208823474258	-0.04662102205827582	-0.564073491125565	-0.08895316930934145	-0.1773081672274294	0.01955904409837796	-0.02532941772669902	-0.2473903688339991	0.1027432330580204	0.03696950668085702	0.1783675737477727	-4.518934198417551	-18.09277553822671	5.712492243585442	-2.885003901007948	-593.9424084111481	-58.60407083526272	-23.4134242160647	0.4425602111935879	0.5331676585826798	-0.6094495702743268	-0.8636439807050844	0.6834887846220651	-0.1364496088153634	1.515253914898357	-0.8625646153101054	-0.8625646152735389	-0.08609422286398484	-0.07755803346583239	-0.4227132735039352	0.6948703536044679	5.492078674965823e-07	6.25939254859716e-07	-3.209663678594895e-06	-3.538896216589691e-07	6.596173076847389e-07	5.044422045369282e-07	5.08078788402884e-07
1.54	-0.3217002631680824	-0.02578025037595922	0.7818471547835109	1.101538296659564	-0.3046343383677034	-0.01186647702020252	-0.3160251130021358	0.7465074770616338	0.7465074770616319	-0.1728290637157935	0.1645677708458784	0.1443500288736047	-0.02227919869453962	0.4504833162535519	0.1813528137448368	0.4977304050357087	-2.176888124559491	0.01026740852083682	-0.7168106256077891	0.6362022530817751	-2.169966332282471	-2.169966332281831	0.006515685804875713	-0.04729035721707095	-0.5679199564550712	-0.08174320478855727	-0.1709795470262411	0.01894530226521635	-0.02511734901474364	-0.2443431569041643	0.1039692820433858	0.03671612065360343	0.1730059821101823	-3.90182693156789	-18.18810221036438	5.838855349566113	-2.99374967800068	-589.6253408766619	-58.949034198967	-24.69935698632204	0.3880504049180326	0.5133565779383997	-0.6735411357289603	-0.6334273784855281	0.7461967970768478	-0.1644449649141373	1.468390562374922	-0.6331720978511225	-0.6331720978511215	0.06528709887391748	-0.05117862622773398	-0.3395898458397556	0.7666356495264545	6.038601132959318e-07	7.436495980633893e-07	-3.440932324105026e-06	-3.761314280388937e-07	7.271226732981557e-07	6.324029445594867e-07	5.502497020414517e-07
1.55	-0.3171761269009288	-0.02394129789025335	0.7867898908345122	1.079739546225003	-0.3044962766359509	-0.01903865184206736	-0.3095915767458267	0.7247780853423366	0.7247780853423557	-0.1727665519677963	0.1640916661841954	0.1386540109752068	-0.02306070777132328	0.4542704619639383	0.186406240594127	0.4907197620243632	-2.182537540926591	0.017337189550571	-0.7174784062496118	0.6503784543024455	-2.175590526594991	-2.175590526595191	0.00592678123061104	-0.04795515640006805	-0.5711809065097194	-0.07457166650287854	-0.1643237638006512	0.01786915975595755	-0.0248839713782336	-0.2419915987486775	0.1060198011468705	0.03624524616556878	0.1674075792064258	-3.041473103083997	-18.22613663129141	5.949882167125247	-3.231838560725508	-585.5410848682326	-59.27784247138116	-25.9752909592128	0.363085822869407	0.4965386437562706	-0.7292150173547221	-0.4819547666818265	0.6866688981854697	0.004518315888601774	1.373253320284265	-0.4789442267270745	-0.4789442268531501	-0.1299944166780521	-0.07707616012104924	-0.3039453351486419	0.690740737582734	6.583377736568327e-07	9.028103782035052e-07	-3.66811891088484e-06	-3.936430223333241e-07	7.975572357997626e-07	7.818723966714087e-07	5.946909226029838e-07
1.56	-0.3126163113429206	-0.0220527705549882	0.7916596426286964	1.057894050426597	-0.3042876570654492	-0.02621301188440803	-0.3030200747936376	0.7030020714541582	0.703002071454193	-0.1727117323017578	0.1636083244115291	0.132928464026288	-0.02377083590135134	0.4576191744251501	0.1912677836566938	0.4831335536723025	-2.18623719732807	0.02437897627085651	-0.7172476697032376	0.6637953922579647	-2.179290766058498	-2.179290766059539	0.004977269412291648	-0.04873777941448123	-0.5738257665592197	-0.06746701543743298	-0.1576679805750663	0.01679301724670036	-0.0246505937416988	-0.2396400405931962	0.1080703202503551	0.03577437167753587	0.1618091763026642	-2.180904299661237	-18.26835185246573	6.066310755094237	-3.515635869674389	-581.494549918483	-59.71959029970088	-27.24083585073119	0.3003637550831164	0.4749798205937283	-0.7886542038719864	-0.243475385361149	0.7405979351871086	0.01525847272520846	1.316537909344726	-0.2483811280486321	-0.2483811280486307	-0.006834349937031109	-0.07474339251094959	-0.2163718448101607	0.7532582054798168	5.893698887040254e-07	1.20165427121996e-06	-3.252902745206125e-06	-3.010452413026883e-07	7.47528002132702e-07	8.771513380720963e-07	5.58011777774873e-07
